<svg xmlns="http://www.w3.org/2000/svg" xmlns:xlink="http://www.w3.org/1999/xlink" viewBox="0 0 215.49 215.49"><defs><style>.cls-1{fill:#fff;opacity:0;}.cls-2{fill:url(#未命名的渐变_35);}.cls-3{fill:url(#未命名的渐变_35-2);}.cls-4{fill:url(#未命名的渐变_39);}.cls-5{fill:url(#未命名的渐变_34);}.cls-6{fill:url(#未命名的渐变_34-2);}</style><linearGradient id="未命名的渐变_35" x1="84.15" y1="186.65" x2="131.54" y2="104.58" gradientUnits="userSpaceOnUse"><stop offset="0" stop-color="#fff" stop-opacity="0.2"/><stop offset="1" stop-color="#fff" stop-opacity="0.1"/></linearGradient><linearGradient id="未命名的渐变_35-2" x1="84.15" y1="199.65" x2="131.54" y2="117.58" xlink:href="#未命名的渐变_35"/><linearGradient id="未命名的渐变_39" x1="189.83" y1="60.88" x2="27.28" y2="154.74" gradientUnits="userSpaceOnUse"><stop offset="0" stop-color="#fff" stop-opacity="0.6"/><stop offset="1" stop-color="#fff" stop-opacity="0.4"/></linearGradient><linearGradient id="未命名的渐变_34" x1="84" y1="109.66" x2="131.39" y2="27.59" gradientUnits="userSpaceOnUse"><stop offset="0" stop-color="#fff" stop-opacity="0.1"/><stop offset="1" stop-color="#fff" stop-opacity="0.6"/></linearGradient><linearGradient id="未命名的渐变_34-2" x1="84" y1="96.66" x2="131.39" y2="14.59" xlink:href="#未命名的渐变_34"/></defs><g id="图层_2" data-name="图层 2"><g id="图层_1-2" data-name="图层 1"><rect class="cls-1" width="215.49" height="215.49"/><path class="cls-2" d="M190.76,150.88l-80.09,46.54a7.82,7.82,0,0,1-7.84,0l-74-42.72a11.47,11.47,0,0,1,0-19.85L102.63,92a7,7,0,0,1,7,0l81.09,46.82A7,7,0,0,1,190.76,150.88Z"/><path class="cls-3" d="M190.76,163.88l-80.09,46.54a7.82,7.82,0,0,1-7.84,0l-74-42.72a11.47,11.47,0,0,1,0-19.85L102.63,105a7,7,0,0,1,7,0l81.09,46.82A7,7,0,0,1,190.76,163.88Z"/><path class="cls-4" d="M191.91,78.92,119.32,192.44a13.37,13.37,0,0,1-17.95,4.37L29.78,155.48a13.38,13.38,0,0,1-4.58-18.79L97.79,23.18a13.37,13.37,0,0,1,17.95-4.37l71.59,41.33A13.37,13.37,0,0,1,191.91,78.92Z"/><path class="cls-5" d="M188,78l-75.42,43.83a7.49,7.49,0,0,1-7.52,0L25,75.59a7.5,7.5,0,0,1,0-13l74.3-43.17a17.88,17.88,0,0,1,18,0L188,60.28A10.24,10.24,0,0,1,188,78Z"/><path class="cls-6" d="M188,65l-75.42,43.83a7.49,7.49,0,0,1-7.52,0L25,62.59a7.5,7.5,0,0,1,0-13L99.28,6.44a17.88,17.88,0,0,1,18,0L188,47.28A10.24,10.24,0,0,1,188,65Z"/></g></g></svg>